<?xml version="1.0" standalone="no"?>
<!DOCTYPE svg PUBLIC "-//W3C//DTD SVG 20010904//EN"
 "http://www.w3.org/TR/2001/REC-SVG-20010904/DTD/svg10.dtd">
<svg version="1.0" xmlns="http://www.w3.org/2000/svg"
 width="525.000000pt" height="119.000000pt" viewBox="0 0 525.000000 119.000000"
 preserveAspectRatio="xMidYMid meet">

<g transform="translate(0.000000,119.000000) scale(0.100000,-0.100000)"
fill="#000000" stroke="none">
<path d="M1597 1009 c-63 -15 -134 -56 -204 -120 -66 -60 -120 -93 -178 -111
-50 -15 -518 -21 -632 -8 -107 12 -199 3 -215 -23 -4 -7 -8 -69 -8 -139 0
-122 1 -128 23 -139 16 -9 127 -13 422 -13 l400 -1 56 -26 c32 -15 83 -51 115
-81 33 -29 75 -64 95 -76 95 -58 265 -87 369 -62 85 20 110 54 229 308 57 122
107 222 110 222 17 0 45 -78 97 -267 31 -114 65 -220 76 -235 10 -15 36 -33
57 -39 32 -9 44 -8 75 6 30 15 43 32 79 106 23 48 45 88 48 88 3 1 12 -18 19
-41 20 -69 51 -128 72 -139 11 -6 36 -11 55 -11 62 0 103 55 173 232 47 118
54 130 81 130 11 0 37 16 59 36 46 42 44 52 30 -120 -9 -112 -9 -122 11 -162
16 -34 32 -49 74 -69 80 -40 103 -26 182 106 34 57 67 116 74 132 19 42 24 33
20 -35 -4 -84 14 -165 42 -182 30 -18 111 -28 141 -16 34 12 45 37 77 169 29
116 41 143 58 126 5 -6 27 -61 50 -124 47 -133 69 -161 121 -161 38 0 110 33
163 74 l29 23 50 -33 c58 -40 97 -48 188 -42 90 7 136 34 228 137 70 77 72 81
48 87 -31 7 -54 -5 -123 -68 -83 -75 -161 -100 -195 -60 -21 23 -48 78 -48 96
0 8 25 44 56 78 168 186 126 326 -77 261 -71 -23 -149 -98 -172 -167 -21 -61
-21 -104 -2 -176 19 -72 19 -80 -5 -80 -29 0 -45 31 -91 175 -47 145 -60 170
-100 191 -68 35 -136 0 -163 -84 -8 -26 -25 -103 -36 -172 -23 -138 -37 -190
-51 -190 -13 0 -11 26 16 225 14 99 25 192 25 207 0 34 -24 48 -96 55 -74 8
-99 -10 -119 -85 -33 -120 -69 -206 -116 -278 -27 -41 -52 -74 -57 -74 -4 0 0
77 9 172 19 191 16 209 -35 230 -38 16 -101 15 -121 -2 -8 -7 -36 -41 -61 -77
-41 -57 -78 -87 -95 -77 -3 2 0 36 8 76 28 143 6 252 -59 301 -41 31 -71 13
-98 -60 -41 -107 -27 -219 40 -324 29 -44 30 -47 16 -86 -18 -52 -53 -120 -65
-128 -18 -11 -32 35 -81 259 -51 239 -73 297 -120 321 -71 36 -151 9 -212 -72
-22 -29 -42 -53 -43 -53 -1 0 -14 24 -29 53 -32 66 -63 96 -113 108 -49 11
-596 10 -646 -2z m1322 -151 c15 -42 23 -120 16 -170 -6 -41 -9 -47 -22 -37
-23 19 -31 42 -42 108 -11 67 0 121 25 121 8 0 18 -10 23 -22z m-422 -35 c8
-21 32 -103 53 -183 l37 -145 -21 -63 c-12 -35 -25 -64 -31 -65 -20 -2 -53 65
-74 150 -33 136 -48 236 -40 267 7 25 45 76 56 76 2 0 11 -17 20 -37z m1916
-47 c14 -36 -91 -226 -124 -226 -14 0 -2 112 18 163 26 65 91 103 106 63z"/>
<path d="M3162 985 c-59 -26 -63 -95 -9 -141 26 -22 38 -25 72 -21 47 7 95 53
95 92 0 60 -89 100 -158 70z"/>
</g>
</svg>
